<svg width="180" height="180" viewBox="0 0 180 180" fill="none" xmlns="http://www.w3.org/2000/svg">
  <rect width="180" height="180" rx="40" fill="white"/>
  <path d="M90 22.5C90 22.5 67.5 45 67.5 78.75C67.5 90 73.125 101.25 90 112.5C106.875 101.25 112.5 90 112.5 78.75C112.5 45 90 22.5 90 22.5Z" fill="#ec4899"/>
  <path d="M90 112.5C90 112.5 78.75 118.125 67.5 129.375C61.875 135 61.875 146.25 67.5 151.875C73.125 157.5 84.375 157.5 90 151.875C95.625 157.5 106.875 157.5 112.5 151.875C118.125 146.25 118.125 135 112.5 129.375C101.25 118.125 90 112.5 90 112.5Z" fill="#ec4899"/>
  <circle cx="78.75" cy="70.3125" r="5.625" fill="white"/>
  <circle cx="101.25" cy="70.3125" r="5.625" fill="white"/>
  <path d="M50.625 90L33.75 101.25L39.375 112.5L56.25 101.25L50.625 90Z" fill="#f97316"/>
  <path d="M129.375 90L146.25 101.25L140.625 112.5L123.75 101.25L129.375 90Z" fill="#f97316"/>
</svg>
