<svg width="512" height="512" viewBox="0 0 512 512" fill="none" xmlns="http://www.w3.org/2000/svg">
  <rect width="512" height="512" rx="128" fill="white"/>
  <path d="M256 64C256 64 192 128 192 224C192 256 208 288 256 320C304 288 320 256 320 224C320 128 256 64 256 64Z" fill="#ec4899"/>
  <path d="M256 320C256 320 224 336 192 368C176 384 176 416 192 432C208 448 240 448 256 432C272 448 304 448 320 432C336 416 336 384 320 368C288 336 256 320 256 320Z" fill="#ec4899"/>
  <circle cx="224" cy="200" r="16" fill="white"/>
  <circle cx="288" cy="200" r="16" fill="white"/>
  <path d="M144 256L96 288L112 320L160 288L144 256Z" fill="#f97316"/>
  <path d="M368 256L416 288L400 320L352 288L368 256Z" fill="#f97316"/>
</svg>
